<svg width="20" height="14" viewBox="0 0 20 14" fill="none" xmlns="http://www.w3.org/2000/svg">
<path fill-rule="evenodd" clip-rule="evenodd" d="M5.25006 0C7.32113 0 9.00006 1.67893 9.00006 3.75C9.00006 4.95256 8.43401 6.0229 7.55382 6.70913L7.49806 6.75L7.55382 6.79087C8.38511 7.43897 8.9362 8.4297 8.99486 9.55084L9.00006 9.75C9.00006 11.7543 7.4277 13.3913 5.44922 13.4948L5.25006 13.5H0.750061C0.370365 13.5 0.0565701 13.2178 0.00690765 12.8518L6.10352e-05 12.75L6.10352e-05 6.75L6.10352e-05 0.75C6.10352e-05 0.370304 0.282215 0.056509 0.64829 0.00684662L0.750061 0L5.25006 0ZM1.50006 7.5V12H5.25006C6.44093 12 7.41571 11.0748 7.49487 9.90405L7.50006 9.75C7.50006 8.55914 6.5749 7.58436 5.40411 7.50519L5.25006 7.5H1.50006ZM5.2802 6.00059C5.27021 6.0002 5.26016 6 5.25006 6H1.50006V1.5H5.25006L5.40411 1.50519C6.5749 1.58436 7.50006 2.55914 7.50006 3.75C7.50006 4.94086 6.5749 5.91564 5.40411 5.99481L5.2802 6.00059ZM19.5001 7.75C19.5001 5.40279 17.5973 3.5 15.2501 3.5C12.9029 3.5 11.0001 5.40279 11.0001 7.75V9.75L11.0071 9.85237L11.0406 10.0582C11.3728 11.8271 12.7896 13.2046 14.5844 13.4749C16.4482 13.7556 18.2742 12.7752 19.0699 11.0667C19.2448 10.6912 19.0822 10.245 18.7067 10.0701C18.3312 9.89524 17.8851 10.0579 17.7102 10.4333C17.1953 11.5389 16.0137 12.1732 14.8078 11.9916L14.6289 11.9587C13.5684 11.7268 12.7423 10.8902 12.5238 9.82689L12.5001 9.693V8.5H18.7501L18.8518 8.49315C19.2179 8.44349 19.5001 8.1297 19.5001 7.75ZM12.6207 6.94181C12.9659 5.81743 14.0125 5 15.2501 5L15.4176 5.00502C16.5813 5.07495 17.5499 5.86854 17.8794 6.94181L17.8951 7H12.6041L12.6207 6.94181ZM17.5001 0.75C17.5001 0.335786 17.1643 0 16.7501 0L13.7501 0L13.6483 0.00684662C13.2822 0.056509 13.0001 0.370304 13.0001 0.75C13.0001 1.16421 13.3358 1.5 13.7501 1.5H16.7501L16.8518 1.49315C17.2179 1.44349 17.5001 1.1297 17.5001 0.75Z" fill="#212121"/>
</svg>
