<svg width="22" height="18" viewBox="0 0 22 18" fill="none" xmlns="http://www.w3.org/2000/svg">
<path fill-rule="evenodd" clip-rule="evenodd" d="M19.6777 5.37134L19.6825 4.8806L19.6874 4.9466C19.6894 4.95938 19.6918 4.96189 19.6937 4.96116L20.0488 4.2535L20.5021 3.36816L20.7854 2.79306L20.9105 2.52807C21.1496 2.01271 21.3227 1.58406 21.4297 1.22395L21.4525 1.1386L21.4591 1.12488C21.6188 0.680567 21.3295 0.112598 20.7505 0.112598L20.6393 0.120854L20.5325 0.14492L20.4215 0.189105C20.2329 0.281549 20.0385 0.36574 19.8323 0.444968L19.3938 0.600692L19.0187 0.717708L18.5405 0.85365L17.9685 1.0106L17.8465 0.90388C16.5937 -0.129996 14.8887 -0.25337 13.1085 0.413225L12.9002 0.496497C11.1877 1.2254 10.0643 2.82001 10.0037 4.64306L10.0015 5.0906L9.82051 5.08134C7.21881 4.89 4.9164 3.58804 3.36137 1.41601C3.04188 0.969754 2.36701 1.00652 2.09789 1.48484L2.00552 1.66082L1.95777 1.75767C1.25806 3.2042 0.796666 4.96896 0.966009 6.82822L0.994549 7.09269C1.27941 9.37228 2.54183 11.3243 4.94066 12.7662L5.20654 12.9206L5.03369 13.0175C3.56326 13.8103 2.23696 14.1598 0.780709 14.1032C-0.0115413 14.0723 -0.30355 15.1317 0.392611 15.5111C3.93568 17.4423 7.73178 18.037 10.9946 17.0899C14.9734 15.934 17.9998 12.9556 19.1586 8.83043C19.4701 7.69978 19.644 6.53921 19.6777 5.37134ZM17.1902 2.35002C17.3832 2.56779 17.6847 2.65429 17.9638 2.57193L19.1342 2.24533L19.4235 2.1616L19.2461 2.52645L18.417 4.15166L18.3161 4.36083C18.2189 4.57216 18.1893 4.68145 18.1843 4.81938L18.1836 4.88062C18.1902 6.0779 18.032 7.27228 17.7135 8.42837C16.6978 12.0441 14.0638 14.6362 10.5763 15.6494L10.2683 15.733C8.32329 16.225 6.14598 16.1043 3.95514 15.4135L3.51454 15.2666L3.76696 15.1921C4.87088 14.8421 5.97493 14.2711 7.16734 13.4768C7.66137 13.1477 7.59542 12.4023 7.05126 12.1651C4.05082 10.857 2.66801 8.97791 2.45983 6.69216L2.43786 6.36254C2.39586 5.37531 2.56563 4.40568 2.85569 3.527L2.94254 3.2776L2.97855 3.31957C4.9789 5.49359 7.74684 6.6797 10.7707 6.60235C11.1773 6.59195 11.5015 6.25934 11.5015 5.8526V4.8526C11.483 3.49684 12.3197 2.31033 13.6345 1.81797C15.1153 1.26349 16.3767 1.43196 17.1902 2.35002Z" fill="#212121"/>
</svg>
